<?xml version="1.0" encoding="UTF-8"?>
<svg xmlns="http://www.w3.org/2000/svg" id="Ebene_1" data-name="Ebene 1" viewBox="0 0 223.39 85.04"><defs><style>.cls-1{fill:#424242;}.cls-2{fill:#7e0b80;}</style></defs><title>Pubnative</title><path class="cls-1" d="M196.12,60.63l-1.79-1v4.06c0,1-1.12,1.45-1.7,1.69l-19.52,6.77c-1.26.29-1.7-.78-1.7-1.7V15.73c0-.92.25-2.23,1.7-1.7l19.52,6.48c1.12.39,1.6.78,1.7,1.69v2.28l2.85-2V20.75c0-2.8-2.23-3.81-5.08-5.07L171.8,7.56c-2.75-.82-5.07,2.32-5.07,5.12V72.47c0,2.81,2.46,5.61,5.07,5.08,2.08-.53,20.3-8.12,20.3-8.12,2.52-1,5.08-2.27,5.08-5.08V61.07Z"/><path class="cls-2" d="M5.86,30a1.28,1.28,0,0,1,1.45-1.45h7c4.59,0,7.4,2.51,7.4,7.39v1.69c0,4.84-2.81,7.4-7.4,7.4H10.21v8.6a1.28,1.28,0,0,1-1.45,1.45H7.31a1.28,1.28,0,0,1-1.45-1.45Zm4.35,2.7v8.22h3.53c2.32,0,3.58-.87,3.58-3.58v-1c0-2.71-1.26-3.58-3.58-3.58H10.21Z"/><path class="cls-2" d="M26.4,35.11h1.36a1.18,1.18,0,0,1,1.35,1.35v12c0,2.42,1.11,3.14,2.52,3.14s2.51-.72,2.51-3.14v-12a1.18,1.18,0,0,1,1.35-1.35h1.36a1.18,1.18,0,0,1,1.35,1.35V48.74c0,4.45-2.85,6.72-6.62,6.72S25,53.24,25,48.74V36.46a1.28,1.28,0,0,1,1.45-1.35"/><path class="cls-2" d="M47.58,36.27a4.53,4.53,0,0,1,3.72-1.6c3.09,0,5.41,2,5.41,6.24v7.83c0,4.54-2.85,6.72-6.62,6.72s-6.62-2.18-6.62-6.72V29.55a1.18,1.18,0,0,1,1.35-1.35h1.35a1.18,1.18,0,0,1,1.36,1.35v6.72Zm0,12.23c0,2.42,1.11,3.14,2.51,3.14s2.51-.72,2.51-3.14V41.64c0-2.42-1.11-3.15-2.51-3.15s-2.51.73-2.51,3.15Z"/><path class="cls-1" d="M62,36.41c0-5.51,3.53-8.26,8.22-8.26s8.22,2.75,8.22,8.26V53.62A1.28,1.28,0,0,1,77,55.07H75.52a1.29,1.29,0,0,1-1.46-1.45V36.9c0-3.53-1.74-4.59-3.86-4.59s-3.87,1.11-3.87,4.59V53.62a1.28,1.28,0,0,1-1.45,1.45h-1.5a1.28,1.28,0,0,1-1.45-1.45V36.41Z"/><path class="cls-1" d="M96.64,48.74c0,4.45-2.85,6.72-6.62,6.72s-6.63-2.22-6.63-6v-.1c0-3.77,2.32-6,6.63-6h2.51v-1.7c0-2.41-1.11-3.14-2.51-3.14a2,2,0,0,0-2.18,2,1,1,0,0,1-1.16,1.16H85.13a1.18,1.18,0,0,1-1.35-1.35c0-3.19,2.42-5.66,6.24-5.66s6.62,2.23,6.62,6.72Zm-4.11-.24V46.42H90A2.32,2.32,0,0,0,87.5,49,2.31,2.31,0,0,0,90,51.64c1.4,0,2.51-.72,2.51-3.14"/><path class="cls-1" d="M107.18,55.17c-3.58,0-5.61-1.5-5.61-5.61v-18a1.18,1.18,0,0,1,1.35-1.35h1.36a1.18,1.18,0,0,1,1.35,1.35v3.53h3.24a1.18,1.18,0,0,1,1.35,1.35v1.11a1.18,1.18,0,0,1-1.35,1.36h-3.24V49.27c0,1.55.53,2.08,2.08,2.08a10.11,10.11,0,0,0,1.16-.1c.92-.14,1.35.44,1.35,1.31v1.11A1.19,1.19,0,0,1,109.06,55a8.38,8.38,0,0,1-1.88.15"/><path class="cls-1" d="M114.86,29.94a1.19,1.19,0,0,1,1.35-1.36h1.36a1.18,1.18,0,0,1,1.35,1.36v1.3a1.18,1.18,0,0,1-1.35,1.36h-1.36a1.19,1.19,0,0,1-1.35-1.36Zm0,6.52a1.18,1.18,0,0,1,1.35-1.35h1.36a1.18,1.18,0,0,1,1.35,1.35V53.67A1.18,1.18,0,0,1,117.57,55h-1.36a1.18,1.18,0,0,1-1.35-1.35Z"/><path class="cls-1" d="M123.46,36.56a1,1,0,0,1,1.07-1.45h1.59c.87,0,1.36.29,1.55,1.11L131,51.3l3.28-15.08a1.38,1.38,0,0,1,1.55-1.11h1.5a1,1,0,0,1,1.06,1.45l-4.2,16.58a2.31,2.31,0,0,1-2.42,1.93h-1.64a2.31,2.31,0,0,1-2.42-1.93Z"/><path class="cls-1" d="M152.37,48.35h1.55a1.18,1.18,0,0,1,1.35,1.36c0,3.38-2.56,5.75-6.43,5.75s-6.62-2.22-6.62-6.72V41.39c0-4.44,2.85-6.72,6.62-6.72s6.62,2.23,6.62,6.72v3.24A1.18,1.18,0,0,1,154.11,46h-7.78V48.5c0,2.42,1.11,3.14,2.51,3.14a2.1,2.1,0,0,0,2.37-2.13,1,1,0,0,1,1.16-1.16m-6-5.46h5.07V41.64c0-2.42-1.11-3.15-2.51-3.15s-2.51.73-2.51,3.15v1.25Z"/><polygon class="cls-2" points="194.66 41.83 194.66 41.83 194.66 33.76 187.61 36.37 187.61 42.55 194.66 41.83"/><path class="cls-2" d="M197.18,48.31l12.57,1.25V46.13l-4-.1V35.21l4-.92V31.05l-9,2.75V24.23l-9.43,5.42v3.67L196.79,31V44.58l-5.46.1v11.6c2.22.87,4.11,1.6,5.85,2.32Z"/><polygon class="cls-2" points="202.88 20.75 202.88 30.95 212.31 27.47 212.31 14.86 202.88 20.75"/><polygon class="cls-2" points="207.91 44.49 217.53 44.2 217.53 35.5 207.91 37.19 207.91 44.49"/><polygon class="cls-2" points="213.13 54.83 213.13 52.56 199.31 50.58 199.31 64.64 213.13 72.52 213.13 65.56 207.14 63.19 207.14 53.67 213.13 54.83"/><polygon class="cls-2" points="214.15 63.29 214.15 56.86 209.26 55.75 209.26 61.5 214.15 63.29"/></svg>
