<?xml version="1.0" encoding="UTF-8"?>
<svg width="94px" height="29px" viewBox="0 0 94 29" version="1.1" xmlns="http://www.w3.org/2000/svg" xmlns:xlink="http://www.w3.org/1999/xlink">
    <!-- Generator: Sketch 51.3 (57544) - http://www.bohemiancoding.com/sketch -->
    <title>logo-dark</title>
    <defs/>
    <g id="Page-1" stroke="none" stroke-width="1" fill="none" fill-rule="evenodd">
        <g id="A4" transform="translate(-361.000000, -242.000000)" fill-rule="nonzero">
            <g id="logo-dark" transform="translate(361.000000, 242.000000)">
                <path d="M19.1762481,11.8525688 C19.5098117,12.4640815 19.7286243,13.1466998 19.8039019,13.8717577 C19.8373102,14.1934232 20.1137091,14.4357175 20.4384904,14.4357175 L27.0506716,14.4357175 C27.0506477,14.4212636 27.0506716,14.4068059 27.0506716,14.3923445 C27.0506716,12.6827357 26.7162431,11.025173 26.0565973,9.46565576 C25.4191601,7.95852372 24.5062348,6.6045913 23.3431945,5.44155098 C22.1800977,4.27845418 20.8261653,3.36552884 19.3190332,2.72809166 C17.759516,2.06844589 16.1019533,1.73401741 14.3923445,1.73401741 C12.6827357,1.73401741 11.025173,2.06844589 9.46565576,2.72809166 C7.95852372,3.36552884 6.6045913,4.27845418 5.44149449,5.44155098 C4.27845418,6.6045913 3.36552884,7.95852372 2.72809166,9.46565576 C2.06844589,11.025173 1.73401741,12.6827357 1.73401741,14.3923445 C1.73401741,14.4068059 1.73404134,14.4212636 1.73401741,14.4357175 L8.3461987,14.4357175 C8.67092336,14.4357175 8.94732213,14.1934232 8.9807305,13.8717577 C9.26393576,11.1439843 11.5787545,9.01689054 14.3923162,9.01689054 C15.8879145,9.01689054 17.2425596,9.61790671 18.2260507,10.5906826 L21.2704031,8.1483121 C21.6096704,7.8761306 22.1029791,7.93349876 22.3722388,8.27644746 C22.6414986,8.61939616 22.5847463,9.1180577 22.245479,9.3902392 L19.1762481,11.8525688 Z M16.1665081,12.2429768 C15.6656019,11.7492255 14.9778568,11.4445149 14.2189427,11.4445149 C12.6866686,11.4445149 11.4445149,12.6866686 11.4445149,14.2189427 C11.4445149,15.751217 12.6866686,16.9933706 14.2189427,16.9933706 C15.751217,16.9933706 16.9933706,15.751217 16.9933706,14.2189427 C16.9933706,14.0241408 16.9732941,13.834028 16.9350972,13.6505605 L15.1439625,15.0875212 C14.8046952,15.3597027 14.3113865,15.3023345 14.0421268,14.9593858 C13.772867,14.6164371 13.8296193,14.1177756 14.1688866,13.8455941 L16.1665081,12.2429768 Z M14.2189427,22.5388019 C14.2426946,22.5410678 14.2667614,22.5422263 14.2910934,22.5422263 C15.9818455,22.5422263 17.5782976,21.9104748 18.8169952,20.7871411 C19.1331712,20.5004116 19.1617881,20.0063179 18.8809129,19.6835519 C18.6000376,19.360786 18.116032,19.3315726 17.799856,19.6183021 C16.8388045,20.4898478 15.603235,20.9787901 14.2910934,20.9787901 C14.2667614,20.9787901 14.2426945,20.9799486 14.2189427,20.9822145 C14.195191,20.9799486 14.1711241,20.9787901 14.1467921,20.9787901 C12.8347009,20.9787901 11.5991158,20.4898288 10.6380131,19.6182872 C10.321829,19.331567 9.83782416,19.3607946 9.55695801,19.6835688 C9.2760919,20.006343 9.30472272,20.5004358 9.62090675,20.787156 C10.8596423,21.9104589 12.4560926,22.5422263 14.1467921,22.5422263 C14.1711241,22.5422263 14.195191,22.5410678 14.2189427,22.5388019 Z M0.00956833376,14.9638612 C0.00320772931,14.7885967 0,14.6125305 0,14.4357175 C2.13325831e-05,14.4212648 0,14.4068071 0,14.3923445 C0,6.4436906 6.4436906,0 14.3923445,0 C22.3409984,0 28.784689,6.4436906 28.784689,14.3923445 C28.784689,14.4068071 28.7846677,14.4212648 28.784625,14.4357175 C28.784689,14.6125345 28.7814811,14.7886044 28.7751202,14.9638728 C28.783073,15.0093144 28.7862095,15.0563506 28.7839987,15.1044134 C28.4332393,22.7186895 22.1240523,28.784689 14.3923162,28.784689 C6.6606368,28.784689 0.351393069,22.7186895 0.00069046098,15.1044134 C-0.00152061077,15.0563465 0.00161562571,15.0093064 0.00956833376,14.9638612 Z" id="Logo" fill="#3D78FE"/>
                <path d="M39.5789474,7.48626794 L44.2978373,7.48626794 C46.9280383,7.48626794 48.4752153,9.03344498 48.4752153,11.1801531 C48.4752153,12.6306316 47.6242679,13.7136555 46.4445455,14.1391292 C47.8950239,14.5259234 48.900689,15.7830048 48.900689,17.4075407 C48.900689,19.6122679 47.1987943,21.1981244 44.6459522,21.1981244 L39.5789474,21.1981244 L39.5789474,7.48626794 Z M41.8803732,13.2881818 L43.9884019,13.2881818 C45.3421818,13.2881818 46.1544498,12.5145933 46.1544498,11.3735502 C46.1544498,10.2131675 45.3421818,9.45891866 43.9303828,9.45891866 L41.8803732,9.45891866 L41.8803732,13.2881818 Z M41.8803732,19.2254737 L44.2398182,19.2254737 C45.6322775,19.2254737 46.541244,18.4712249 46.541244,17.252823 C46.541244,16.0731005 45.7483158,15.2414928 44.317177,15.2414928 L41.8803732,15.2414928 L41.8803732,19.2254737 Z M52.51494,15.4542297 L57.1371314,15.4542297 C57.0984519,14.351866 56.3635428,13.3655407 54.8163658,13.3655407 C53.4045668,13.3655407 52.5922988,14.4485646 52.51494,15.4542297 Z M57.3885476,17.9103732 L59.2838395,18.5099043 C58.781007,20.1537799 57.2918491,21.4882201 55.0291027,21.4882201 C52.4762605,21.4882201 50.2135141,19.6316077 50.2135141,16.440555 C50.2135141,13.4622392 52.4182414,11.4895885 54.7970261,11.4895885 C57.697983,11.4895885 59.3998778,13.4042201 59.3998778,16.3825359 C59.3998778,16.7499904 59.3611983,17.0594258 59.3418586,17.0981053 L52.4569208,17.0981053 C52.51494,18.529244 53.6366433,19.5542488 55.0291027,19.5542488 C56.3828826,19.5542488 57.0791122,18.8386794 57.3885476,17.9103732 Z M66.7853728,11.7216651 L66.7853728,14.0037512 C66.5339565,13.9650718 66.2825402,13.9457321 66.0504637,13.9457321 C64.3098895,13.9457321 63.5169613,14.9513971 63.5169613,16.711311 L63.5169613,21.1981244 L61.2735546,21.1981244 L61.2735546,11.7796842 L63.4589421,11.7796842 L63.4589421,13.2881818 C63.9037555,12.263177 64.9481,11.6636459 66.1858417,11.6636459 C66.4565976,11.6636459 66.6886742,11.7023254 66.7853728,11.7216651 Z M71.6373654,8.89806699 L71.6373654,11.7796842 L73.5906764,11.7796842 L73.5906764,13.7716746 L71.6373654,13.7716746 L71.6373654,18.1424498 C71.6373654,18.9740574 72.0048199,19.3221722 72.8364276,19.3221722 C73.145863,19.3221722 73.5133175,19.2641531 73.6100161,19.2448134 L73.6100161,21.1014258 C73.4746381,21.159445 73.0491644,21.3141627 72.2368965,21.3141627 C70.4963223,21.3141627 69.4132984,20.2698182 69.4132984,18.5099043 L69.4132984,13.7716746 L67.6727242,13.7716746 L67.6727242,11.7796842 L68.156217,11.7796842 C69.1618821,11.7796842 69.6066955,11.1414737 69.6066955,10.309866 L69.6066955,8.89806699 L71.6373654,8.89806699 Z M77.5917216,15.6669665 L77.5917216,21.1981244 L75.3483149,21.1981244 L75.3483149,7.19617225 L77.5917216,7.19617225 L77.5917216,12.6886507 C78.2299321,11.8570431 79.2936163,11.5089282 80.2799417,11.5089282 C82.6007073,11.5089282 83.7224106,13.1721435 83.7224106,15.2414928 L83.7224106,21.1981244 L81.4790039,21.1981244 L81.4790039,15.6282871 C81.4790039,14.4679043 80.9568317,13.5395981 79.5450326,13.5395981 C78.307291,13.5395981 77.630401,14.4679043 77.5917216,15.6669665 Z M85.5960879,18.6452823 C85.5960879,16.9627273 86.8338295,16.0344211 88.4390257,15.8023445 L90.8564898,15.43489 C91.3980017,15.3575311 91.5527194,15.0867751 91.5527194,14.758 C91.5527194,13.9650718 91.0112075,13.3268612 89.7734659,13.3268612 C88.5937434,13.3268612 87.9361931,14.08111 87.8394946,15.028756 L85.789485,14.5646029 C85.9635424,12.940067 87.4333606,11.4895885 89.7541261,11.4895885 C92.6550831,11.4895885 93.7574467,13.1334641 93.7574467,15.0094163 L93.7574467,19.6896268 C93.7574467,20.5405742 93.8541453,21.1014258 93.873485,21.1981244 L91.784796,21.1981244 C91.7654563,21.1401053 91.6880974,20.753311 91.6880974,19.9990622 C91.243284,20.7146316 90.3149778,21.4882201 88.7871405,21.4882201 C86.8144898,21.4882201 85.5960879,20.1344402 85.5960879,18.6452823 Z M89.2126142,19.7283062 C90.4696955,19.7283062 91.5527194,19.1287751 91.5527194,17.2915024 L91.5527194,16.8660287 L89.0965759,17.2334833 C88.4003462,17.3495215 87.8394946,17.7363158 87.8394946,18.5099043 C87.8394946,19.1481148 88.3229874,19.7283062 89.2126142,19.7283062 Z" id="Bertha" fill="#46484D"/>
            </g>
        </g>
    </g>
</svg>
