<svg height="28.78621" width="28.78621" xmlns="http://www.w3.org/2000/svg"><path d="m19.1762481 11.8525688c.3335636.6115127.5523762 1.294131.6276538 2.0191889.0334083.3216655.3098072.5639598.6345885.5639598h6.6121812c-.0000239-.0144539 0-.0289116 0-.043373 0-1.7096088-.3344285-3.3671715-.9940743-4.92668874-.6374372-1.50713204-1.5503625-2.86106446-2.7134028-4.02410478-1.1630968-1.1630968-2.5170292-2.07602214-4.0241613-2.71345932-1.5595172-.65964577-3.2170799-.99407425-4.9266887-.99407425s-3.3671715.33442848-4.92668874.99407425c-1.50713204.63743718-2.86106446 1.55036252-4.02416127 2.71345932-1.16304031 1.16304032-2.07596565 2.51697274-2.71340283 4.02410478-.65964577 1.55951724-.99407425 3.21707994-.99407425 4.92668874 0 .0144614.00002393.0289191 0 .043373h6.61218129c.32472466 0 .60112343-.2422943.6345318-.5639598.28320526-2.7277734 2.598024-4.85486716 5.4115857-4.85486716 1.4955983 0 2.8502434.60101617 3.8337345 1.57379206l3.0443524-2.4423705c.3392673-.2721815.832576-.21481334 1.1018357.12813536.2692598.3429487.2125075.84161024-.1267598 1.11379174zm-3.00974.390408c-.5009062-.4937513-1.1886513-.7984619-1.9475654-.7984619-1.5322741 0-2.7744278 1.2421537-2.7744278 2.7744278 0 1.5322743 1.2421537 2.7744279 2.7744278 2.7744279 1.5322743 0 2.7744279-1.2421536 2.7744279-2.7744279 0-.1948019-.0200765-.3849147-.0582734-.5683822l-1.7911347 1.4369607c-.3392673.2721815-.832576.2148133-1.1018357-.1281354-.2692598-.3429487-.2125075-.8416102.1267598-1.1137917zm-1.9475654 10.2958251c.0237519.0022659.0478187.0034244.0721507.0034244 1.6907521 0 3.2872042-.6317515 4.5259018-1.7550852.316176-.2867295.3447929-.7808232.0639177-1.1035892-.2808753-.3227659-.7648809-.3519793-1.0810569-.0652498-.9610515.8715457-2.196621 1.360488-3.5087626 1.360488-.024332 0-.0483989.0011585-.0721507.0034244-.0237517-.0022659-.0478186-.0034244-.0721506-.0034244-1.3120912 0-2.5476763-.4889613-3.508779-1.3605029-.3161841-.2867202-.80018894-.2574926-1.08105509.0652816-.28086611.3227742-.25223529.816867.06394874 1.1035872 1.23873555 1.1233029 2.83518585 1.7550703 4.52588535 1.7550703.024332 0 .0483989-.0011585.0721506-.0034244zm-14.20937437-7.5749407c-.0063606-.1752645-.00956833-.3513307-.00956833-.5281437.00002133-.0144527 0-.0289104 0-.043373 0-7.9486539 6.4436906-14.3923445 14.3923445-14.3923445s14.3923445 6.4436906 14.3923445 14.3923445c0 .0144626-.0000213.0289203-.000064.043373.000064.176817-.0031439.3528869-.0095048.5281553.0079528.0454416.0110893.0924778.0088785.1405406-.3507594 7.6142761-6.6599464 13.6802756-14.3916825 13.6802756-7.7316794 0-14.04092313-6.0659995-14.39162574-13.6802756-.00221107-.0480669.00092517-.095107.00887787-.1405522z" fill="#3d78fe"/></svg>